<svg width="512" height="512" xmlns="http://www.w3.org/2000/svg" viewBox="0 0 48 48"><circle cx="24" cy="23.995" r="12" fill="#fff"/><path fill="none" d="M3.215 36A24 24 0 1 0 12 3.215 24 24 0 0 0 3.215 36Zm31.177-18A12 12 0 1 1 18 13.608 12 12 0 0 1 34.392 18Z"/><path fill="#f29900" d="M24 12h20.781a23.994 23.994 0 0 0-41.564.003L13.607 30l.01-.002A11.985 11.985 0 0 1 24 12Z"/><circle cx="24" cy="24" r="9.5" fill="#fbbc04"/><path fill="#fdd663" d="M34.391 30.003 24.001 48A23.994 23.994 0 0 0 44.78 12.003H23.999l-.003.01a11.985 11.985 0 0 1 10.395 17.99Z"/><path fill="#fbbc04" d="M13.609 30.003 3.218 12.006A23.994 23.994 0 0 0 24.003 48l10.39-17.997-.007-.007a11.985 11.985 0 0 1-20.777.007Z"/></svg>