<svg width="32" height="32" xmlns="http://www.w3.org/2000/svg" fill="none" viewBox="0 0 48 48"><linearGradient id="a" x1="21.489" x2="42.066" y1="46.378" y2="10.76" gradientUnits="userSpaceOnUse"><stop offset="0" stop-color="#fcc934"/><stop offset="1" stop-color="#fbbc04"/></linearGradient><linearGradient id="b" x1="28.225" x2="-2.141" y1="40.305" y2="22.785" gradientUnits="userSpaceOnUse"><stop offset="0" stop-color="#1e8e3e"/><stop offset="1" stop-color="#34a853"/></linearGradient><linearGradient id="c" x1="3.709" x2="44.289" y1="15.011" y2="15.011" gradientUnits="userSpaceOnUse"><stop offset="0" stop-color="#d93025"/><stop offset="1" stop-color="#ea4335"/></linearGradient><path fill="#202124" d="M44.006 36.764c-.452.804-.94 1.565-1.455 2.28l5.412-2.28z"/><path fill="#fff" d="M23.988 36.003c6.626 0 11.997-5.375 11.997-12.005s-5.371-12.004-11.997-12.004-11.997 5.375-11.997 12.005 5.371 12.004 11.997 12.004z"/><path fill="url(#a)" d="M34.401 30.011 24.022 48a23.945 23.945 0 0 0 20.774-11.995 23.984 23.984 0 0 0-.026-24H24.01l-.017.011A11.975 11.975 0 0 1 34.403 18a11.996 11.996 0 0 1-.003 12.012z"/><path fill="url(#b)" d="M13.598 30.011 3.22 12.025A23.984 23.984 0 0 0 12 44.802 23.945 23.945 0 0 0 24 48l10.379-17.989v-.02a11.985 11.985 0 0 1-10.384 6.029 11.976 11.976 0 0 1-10.396-6.009z"/><path fill="#1a73e8" d="M23.988 33.513c5.245 0 9.497-4.255 9.497-9.504s-4.252-9.503-9.497-9.503c-5.246 0-9.498 4.254-9.498 9.503s4.252 9.504 9.498 9.504z"/><path fill="url(#c)" d="M23.988 12.005h20.757a23.945 23.945 0 0 0-41.526.019l10.38 17.987.017.01a11.995 11.995 0 0 1 4.367-16.411 11.974 11.974 0 0 1 6.005-1.605z"/><path fill="#3c4043" d="M15.746 22.509a.75.75 0 0 1 .75-.75h31.491v15.005H16.495a.75.75 0 0 1-.75-.75z"/><path fill="#fff" d="M24.423 28.83c.332-.164.615-.412.824-.718.222-.337.338-.733.33-1.137a2.27 2.27 0 0 0-.347-1.235 2.442 2.442 0 0 0-.937-.858 2.67 2.67 0 0 0-1.255-.31H19.87v8.816h3.338c.458.002.91-.109 1.316-.323.4-.208.737-.52.978-.902.244-.39.371-.841.366-1.301a2.061 2.061 0 0 0-.424-1.287 2.256 2.256 0 0 0-1.021-.746zm-.408 3.254a1.371 1.371 0 0 1-.751.21h-2.265v-2.865h2.221a1.456 1.456 0 0 1 1.498 1.426 1.464 1.464 0 0 1-.704 1.228zm.254-4.447a1.385 1.385 0 0 1-1.235.706h-2.035v-2.67h2.087c.253-.005.501.063.715.197.2.127.364.302.478.509.108.19.166.404.168.623a1.28 1.28 0 0 1-.174.631zm7.327-.395a2.955 2.955 0 0 0-1.587-.419 2.787 2.787 0 0 0-1.589.468 3.08 3.08 0 0 0-1.057 1.234 3.859 3.859 0 0 0-.37 1.689 3.685 3.685 0 0 0 .396 1.72c.252.498.635.914 1.105 1.203a3 3 0 0 0 1.598.437 2.998 2.998 0 0 0 1.668-.454 3.183 3.183 0 0 0 1.093-1.22l.026-.053-.96-.477-.026.047c-.412.728-1.001 1.097-1.762 1.097a1.99 1.99 0 0 1-.94-.239 1.915 1.915 0 0 1-.739-.714 2.404 2.404 0 0 1-.323-1.111h4.813l.01-.042c.028-.109.04-.22.039-.333a3.773 3.773 0 0 0-.36-1.677 2.77 2.77 0 0 0-1.035-1.156zm-1.6.637c.353-.013.703.077 1.007.26.248.155.45.376.586.638.11.22.179.457.205.702h-3.597c.088-.437.305-.836.621-1.143a1.65 1.65 0 0 1 1.178-.457zm6.574 4.623a.759.759 0 0 1-.621-.25c-.12-.155-.181-.404-.181-.736V28.12h1.501v-1.049h-1.501v-1.75h-1.14v1.75h-1.074v1.049h1.075v3.642c-.006.264.036.526.124.775.084.212.212.405.376.563.162.152.353.27.56.347.229.086.47.129.715.127.163.002.326-.01.487-.038.132-.026.26-.068.382-.126l.032-.015V32.25l-.085.054c-.194.127-.42.196-.65.198zm6.558-4.997c-.487-.455-1.162-.682-2.006-.682a3.13 3.13 0 0 0-1.429.325 2.555 2.555 0 0 0-1.016.902l-.028.044.861.657.032-.05a1.69 1.69 0 0 1 .665-.613 1.99 1.99 0 0 1 .926-.22c.43-.016.85.13 1.18.41a1.357 1.357 0 0 1 .463 1.077v.282a3.028 3.028 0 0 0-.66-.239 4.18 4.18 0 0 0-1.044-.124c-.755 0-1.39.191-1.887.569s-.757.918-.757 1.592c-.005.388.098.77.298 1.102.204.329.496.593.841.761.383.189.804.284 1.23.277a2.34 2.34 0 0 0 1.222-.324c.3-.175.56-.415.759-.703v.832h1.086v-4.014c-.002-.78-.25-1.406-.736-1.86zm-2.236 5.04a1.436 1.436 0 0 1-.94-.306.958.958 0 0 1-.365-.79 1.085 1.085 0 0 1 .407-.875c.274-.227.69-.341 1.236-.341.296-.001.59.04.875.12.236.065.462.164.67.295a1.87 1.87 0 0 1-.255.932c-.169.29-.407.532-.692.703a1.775 1.775 0 0 1-.936.262z"/></svg>